HIERARCHY
ROOT root
{
	OFFSET	0	13.1	24.9
	CHANNELS 6  Xposition Yposition Zposition Xrotation Yrotation Zrotation
	JOINT spine_1
	{
		OFFSET	0	9.99999	0
		CHANNELS 3  Xrotation Yrotation Zrotation
		JOINT spine_2
		{
			OFFSET	0	112	-10
			CHANNELS 3  Xrotation Yrotation Zrotation
			JOINT spine_3
			{
				OFFSET	0	206.5	19.3
				CHANNELS 3  Xrotation Yrotation Zrotation
				JOINT spine_4
				{
					OFFSET	0	110.4	14.6
					CHANNELS 3  Xrotation Yrotation Zrotation
					JOINT neck_1
					{
						OFFSET	0	71.8	-50.3
						CHANNELS 3  Xrotation Yrotation Zrotation
						JOINT neck_2
						{
							OFFSET	0	86.2	-25.8
							CHANNELS 3  Xrotation Yrotation Zrotation
							JOINT head_ee
							{
								OFFSET	0	179.8	-8.7
								CHANNELS 3  Xrotation Yrotation Zrotation
								End Site
								{
									OFFSET	1	0	0
								}
							}
						}
					}
					JOINT left_clavicle
					{
						OFFSET	-43.2	22.4	-70.8
						CHANNELS 3  Xrotation Yrotation Zrotation
						JOINT left_shoulder
						{
							OFFSET	-93.9	-5.79999	48.7
							CHANNELS 3  Xrotation Yrotation Zrotation
							JOINT left_elbow
							{
								OFFSET	-291.4	-30.8	15.2
								CHANNELS 3  Xrotation Yrotation Zrotation
								JOINT left_lowarm_twist
								{
									OFFSET	-110.7	-3.89999	13.6
									CHANNELS 3  Xrotation Yrotation Zrotation
									JOINT left_hand
									{
										OFFSET	-110.7	-3.89999	13.6
										CHANNELS 3  Xrotation Yrotation Zrotation
										JOINT left_ee
										{
											OFFSET	-80.8	-5.10001	12.1
											CHANNELS 3  Xrotation Yrotation Zrotation
											End Site
											{
												OFFSET	1	0	0
											}
										}
									}
								}
							}
						}
					}
					JOINT right_clavicle
					{
						OFFSET	43.2	22.4	-70.8
						CHANNELS 3  Xrotation Yrotation Zrotation
						JOINT right_shoulder
						{
							OFFSET	93.9	-5.79999	48.7
							CHANNELS 3  Xrotation Yrotation Zrotation
							JOINT right_elbow
							{
								OFFSET	291.4	-30.8	15.2
								CHANNELS 3  Xrotation Yrotation Zrotation
								JOINT right_lowarm_twist
								{
									OFFSET	110.7	-3.89999	13.6
									CHANNELS 3  Xrotation Yrotation Zrotation
									JOINT right_hand
									{
										OFFSET	110.7	-3.89999	13.6
										CHANNELS 3  Xrotation Yrotation Zrotation
										JOINT right_ee
										{
											OFFSET	80.8	-5.10001	12.1
											CHANNELS 3  Xrotation Yrotation Zrotation
											End Site
											{
												OFFSET	1	0	0
											}
										}
									}
								}
							}
						}
					}
				}
			}
		}
	}
	JOINT left_hip
	{
		OFFSET	-82.8	-127.5	0.300001
		CHANNELS 3  Xrotation Yrotation Zrotation
		JOINT left_knee
		{
			OFFSET	-28.2	-396.7	2.2
			CHANNELS 3  Xrotation Yrotation Zrotation
			JOINT left_ankle
			{
				OFFSET	-11.7	-411.3	35.4
				CHANNELS 3  Xrotation Yrotation Zrotation
				JOINT left_toes
				{
					OFFSET	0	-60	-88.6
					CHANNELS 3  Xrotation Yrotation Zrotation
					JOINT left_foot_ee
					{
						OFFSET	-22.5	-16.5	-42.2
						CHANNELS 3  Xrotation Yrotation Zrotation
						End Site
						{
							OFFSET	1	0	0
						}
					}
				}
			}
		}
	}
	JOINT right_hip
	{
		OFFSET	82.8	-127.5	0.300001
		CHANNELS 3  Xrotation Yrotation Zrotation
		JOINT right_knee
		{
			OFFSET	28.2	-396.7	2.2
			CHANNELS 3  Xrotation Yrotation Zrotation
			JOINT right_ankle
			{
				OFFSET	11.7	-411.3	35.4
				CHANNELS 3  Xrotation Yrotation Zrotation
				JOINT right_toes
				{
					OFFSET	0	-60	-88.6
					CHANNELS 3  Xrotation Yrotation Zrotation
					JOINT right_foot_ee
					{
						OFFSET	22.5	-16.5	-42.2
						CHANNELS 3  Xrotation Yrotation Zrotation
						End Site
						{
							OFFSET	1	0	0
						}
					}
				}
			}
		}
	}
}
MOTION
Frames: 13
Frame Time: 0.02
3457.89 762.449 -1452.36 3.57078 56.8936 1.62834 -1.82102 -0.00225254 -0.582353 -1.82083 0.034808 -0.581316 -1.82103 0.173964 -0.555768 -1.82145 0.0840095 -0.576266 -10.1425 22.0153 8.38592 -10.4561 36.0427 13.8767 -0.0 0.0 -0.0 7.24531 14.7556 13.5456 -24.9677 -32.943 50.1426 0.748342 -20.3401 0.134246 -15.0109 -0.763637 1.75542 -1.40279 19.8468 -0.350175 -0.0 0.0 -0.0 11.8994 27.0005 -23.0355 -11.9552 10.7369 -58.2567 0.478854 13.3447 -0.0560184 23.6159 -0.219183 2.98747 2.92048 20.3523 -10.7223 0.0 0.0 0.0 -7.04595 -11.5331 -2.00739 -0.988302 0.0394308 0.14654 34.9485 25.7724 -4.67896 -12.0123 0.0 0.0 -0.0 0.0 -0.0 6.63793 -4.3227 -1.57028 -12.8738 -0.312468 -1.94681 16.855 22.2135 2.68254 -9.27029 0.0 0.0 0.0 0.0 0.0 
3456.36 760.07 -1451.36 3.48171 58.3862 1.55444 -1.63113 0.00990112 -0.597409 -1.63093 0.0478951 -0.595569 -1.63128 0.188226 -0.56707 -1.63172 0.0963073 -0.589679 -10.6388 21.405 6.7912 -11.1081 36.0615 12.3964 -0.0 0.0 -0.0 8.25196 15.4968 15.1767 -23.7664 -33.6062 47.5626 0.672871 -18.4344 0.10919 -15.7287 -0.811468 1.83387 -1.34233 20.4862 0.296517 -0.0 0.0 -0.0 12.1693 26.6437 -23.6931 -13.3316 11.0066 -57.32 0.32344 9.1029 -0.0257476 23.3903 -0.222944 2.9589 2.78057 21.3325 -9.30252 0.0 0.0 0.0 -6.89734 -10.1348 -1.88509 -1.43889 0.0565665 0.213567 34.6694 25.6606 -4.64573 -12.2159 0.0 0.0 -0.0 0.0 -0.0 6.78095 -3.704 -1.06935 -14.8479 -0.32142 -2.24955 16.7503 18.6863 2.58221 -10.1506 0.0 0.0 0.0 0.0 0.0 
3453.36 758.274 -1449.74 3.34818 58.3451 1.46528 -1.6037 0.0768785 -0.558424 -1.60353 0.112256 -0.552401 -1.60452 0.240231 -0.509939 -1.60485 0.156682 -0.541479 -11.2281 21.8538 7.19137 -11.8071 36.8078 13.1299 -0.0 0.0 -0.0 7.77218 18.2656 14.1204 -22.4981 -33.6714 46.3393 1.00825 -26.5395 0.237783 -16.7066 -0.878215 1.93979 -1.39619 23.1649 1.18635 -0.0 0.0 -0.0 11.9065 25.7658 -23.1938 -15.4607 12.0365 -57.0626 0.453119 12.6512 -0.0502302 23.0272 -0.228763 2.91288 2.79633 21.5318 -9.30868 0.0 0.0 0.0 -6.12041 -7.02853 -1.00899 -2.70609 0.101922 0.402751 34.7454 25.8817 -4.66045 -12.0829 0.0 0.0 -0.0 0.0 -0.0 6.78277 -3.65672 -1.01382 -13.9116 -0.318475 -2.10593 18.0662 17.3835 2.73722 -10.6371 0.0 0.0 0.0 0.0 0.0 
3453.05 764.005 -1447.33 3.41978 58.619 0.994398 -1.56767 0.0748681 -0.541216 -1.56752 0.109155 -0.535356 -1.56845 0.232859 -0.494265 -1.56876 0.151878 -0.524837 -11.4149 21.4382 6.02319 -12.0767 36.8072 11.9925 -0.0 0.0 -0.0 8.42633 20.41 14.9129 -22.4658 -33.9966 43.7141 1.21122 -30.9626 0.335487 -18.3839 -0.996881 2.11877 -1.92868 25.5259 -0.735839 -0.0 0.0 -0.0 12.0066 25.4826 -23.4537 -17.113 12.9575 -56.5077 0.413272 11.5701 -0.0418698 22.4946 -0.236767 2.84533 2.7662 22.8279 -8.46493 0.0 0.0 0.0 -5.09004 -4.06359 -0.679191 -5.08428 0.175692 0.760251 32.6895 25.5218 -4.42553 -12.1336 0.0 0.0 -0.0 0.0 -0.0 7.02495 -3.79708 -0.6468 -13.6753 -0.317361 -2.06969 16.083 15.5695 2.42649 -11.7295 0.0 0.0 0.0 0.0 0.0 
3466.18 760.094 -1466.83 -0.515324 58.4 -0.47954 -0.397082 0.644027 3.50339 -0.390353 0.419935 3.53721 -0.35992 -0.355334 3.54428 -0.377387 0.208513 3.55592 -9.94142 16.087 -5.23561 -10.251 33.7897 -0.920775 -0.0 0.0 -0.0 -0.30706 14.1658 1.17071 -0.0723761 -16.937 56.9748 1.68781 -39.8954 0.612605 -46.7863 -3.70005 4.50436 -1.33842 5.83272 -6.33307 -0.0 0.0 -0.0 13.0916 27.0326 -25.7629 -13.8002 14.5134 -67.8609 0.223975 6.33125 -0.0123873 32.0599 0.00189335 4.04248 -0.429464 -7.05465 -0.14507 0.0 0.0 0.0 3.50561 31.0207 -2.26953 -16.9791 0.31937 2.57652 23.9705 -2.06649 -3.24877 -27.6142 0.0 0.0 -0.0 0.0 -0.0 8.75772 18.3883 0.903145 -16.5017 -0.320887 -2.50328 22.5641 -2.06307 3.05423 -10.7228 0.0 0.0 0.0 0.0 0.0 
3466.43 759.38 -1467.23 0.370258 58.3408 -1.17228 -0.346982 0.609833 3.44821 -0.340452 0.389315 3.47997 -0.312572 -0.37 3.48208 -0.329442 0.184225 3.49681 -10.6025 16.2009 -4.7114 -11.0263 33.6823 -0.145498 -0.0 0.0 -0.0 -0.443373 14.4238 0.982129 0.97435 -17.1131 56.9411 1.79773 -41.6825 0.684424 -47.2081 -3.74826 4.52897 -1.4199 6.13039 -6.73353 -0.0 0.0 -0.0 12.8041 27.2185 -25.0774 -14.2667 14.5009 -68.2227 0.221161 6.25235 -0.012079 31.8975 -0.00381818 4.02253 -0.45129 -6.96054 0.0368716 0.0 0.0 0.0 2.75105 30.8217 -2.19873 -17.4216 0.317421 2.64438 23.7469 -1.00136 -3.2136 -27.9138 0.0 0.0 -0.0 0.0 -0.0 8.5964 17.8876 0.49839 -17.2882 -0.318064 -2.62391 22.2793 -4.41684 3.01207 -10.8578 0.0 0.0 0.0 0.0 0.0 
3461.17 757.65 -1466.08 0.532207 58.3076 -1.76554 -0.34026 0.619754 3.38967 -0.333959 0.402935 3.42218 -0.305777 -0.343795 3.42862 -0.322123 0.201677 3.4399 -10.9659 16.4969 -4.3018 -11.4692 33.9885 0.470765 -0.0 0.0 -0.0 -0.346441 14.5758 1.15765 2.17564 -17.1414 57.0499 1.89019 -43.1128 0.746774 -47.4128 -3.77173 4.5408 -1.46767 6.56071 -6.85014 -0.0 0.0 -0.0 12.735 27.4271 -24.8924 -15.157 14.4086 -68.1478 0.237844 6.71982 -0.0139635 31.6251 -0.0132747 3.98902 -0.437596 -6.71552 0.0518043 0.0 0.0 0.0 2.06597 30.2895 -1.46978 -17.7259 0.315776 2.69104 23.6797 -2.01269 -3.21386 -27.9208 0.0 0.0 -0.0 0.0 -0.0 8.47328 17.1086 0.360846 -16.7165 -0.32028 -2.53624 22.5129 -6.93841 3.0373 -10.9796 0.0 0.0 0.0 0.0 0.0 
3457.91 758.595 -1465.26 0.645197 58.763 -1.92399 -0.255349 0.563926 3.31091 -0.24932 0.352221 3.34004 -0.225071 -0.370975 3.33801 -0.240583 0.160551 3.3547 -11.7514 16.7247 -3.61728 -12.3941 34.0135 1.47925 -0.0 0.0 -0.0 -0.347872 14.7835 1.18109 2.37868 -17.3037 56.8541 2.05812 -45.5487 0.864147 -47.2359 -3.75144 4.53058 -1.56051 7.48815 -7.03041 -0.0 0.0 -0.0 12.5756 27.3655 -24.5346 -16.1331 14.2937 -68.1732 0.206216 5.83286 -0.0105058 31.4063 -0.020752 3.96208 -0.401068 -6.41394 -0.0583656 0.0 0.0 0.0 1.89602 29.9702 -1.33106 -17.7927 0.315381 2.70128 24.4536 -2.68351 -3.31132 -28.1031 0.0 0.0 -0.0 0.0 -0.0 8.69287 16.8955 -0.0799963 -17.2599 -0.318194 -2.61959 22.1678 -7.08192 2.9958 -11.0977 0.0 0.0 0.0 0.0 0.0 
3457.91 758.67 -1467.54 0.503894 59.484 -1.57178 -0.339214 0.51071 3.12016 -0.333852 0.311232 3.1463 -0.313368 -0.374389 3.13942 -0.327098 0.125866 3.15914 -12.6231 17.0723 -3.3906 -13.4354 34.5664 2.12854 -0.0 0.0 -0.0 -0.386429 15.0473 1.15206 2.90455 -17.1073 57.3022 2.25953 -48.2155 1.01121 -47.2167 -3.74925 4.52947 -1.52206 7.74619 -6.65956 -0.0 0.0 -0.0 12.4065 27.3418 -24.1506 -17.2555 14.0998 -68.1834 0.225302 6.36847 -0.0125341 31.1839 -0.02825 3.93465 -0.407373 -5.70408 0.284128 0.0 0.0 0.0 1.67987 29.0281 -1.54715 -16.895 0.319682 2.56362 23.4075 -3.69832 -3.1974 -27.5581 0.0 0.0 -0.0 0.0 -0.0 8.26624 17.4736 -0.267083 -17.2571 -0.318207 -2.61915 22.6788 -7.12353 3.05722 -11.4574 0.0 0.0 0.0 0.0 0.0 
3455.75 759.319 -1470.14 0.148562 59.7798 -1.14605 -0.27357 0.359932 3.11305 -0.268194 0.161211 3.12962 -0.256347 -0.514418 3.0913 -0.269681 -0.0199987 3.13371 -12.3958 17.32 -3.37412 -13.1986 35.0172 2.15204 -0.0 0.0 -0.0 -0.355303 15.1944 1.22011 3.57066 -16.5796 57.1608 2.30558 -48.7887 1.0457 -47.1796 -3.745 4.52732 -1.75974 9.49603 -7.38662 -0.0 0.0 -0.0 12.5905 27.3614 -24.5693 -17.5251 14.1457 -67.9414 0.201678 5.70536 -0.0100496 31.431 -0.0199141 3.96512 -0.447588 -5.24094 0.744771 0.0 0.0 0.0 1.31936 28.967 -1.03878 -17.0755 0.31899 2.5913 23.5633 -3.26666 -3.21165 -28.0848 0.0 0.0 -0.0 0.0 -0.0 7.89045 14.7886 -0.240268 -16.9953 -0.319308 -2.579 23.1472 -6.32229 3.11323 -11.6447 0.0 0.0 0.0 0.0 0.0 
3452.55 760.339 -1471.87 1.18713 60.5058 -2.09929 -0.331914 0.244018 3.1028 -0.32656 0.0461814 3.11203 -0.321144 -0.626592 3.04871 -0.334088 -0.137486 3.10934 -12.8646 17.5512 -3.017 -13.7664 35.2558 2.74805 -0.0 0.0 -0.0 -0.281257 15.0853 1.325 4.00732 -16.6967 57.0558 2.22455 -47.7712 0.985217 -47.4503 -3.77603 4.54295 -1.74128 10.5644 -6.76163 -0.0 0.0 -0.0 12.662 27.5952 -24.7036 -18.1576 14.2341 -68.0943 0.203923 5.76844 -0.010274 31.2163 -0.0271628 3.93866 -0.492388 -4.98933 1.14628 0.0 0.0 0.0 1.29401 28.7536 -1.66059 -17.2371 0.318297 2.61609 22.0994 -4.418 -3.04689 -29.3884 0.0 0.0 -0.0 0.0 -0.0 6.92947 17.7735 -0.806583 -17.4849 -0.317099 -2.65408 23.4299 -7.46325 3.14688 -11.2741 0.0 0.0 0.0 0.0 0.0 
3448.42 757.491 -1474.33 1.03005 60.2745 -1.7989 -0.344113 0.28822 3.02649 -0.339022 0.0951432 3.03868 -0.331111 -0.563382 2.98756 -0.343555 -0.0847097 3.03899 -12.102 17.2104 -4.20876 -12.8515 35.3202 1.21163 -0.0 0.0 -0.0 -0.294773 15.2922 1.32871 3.48895 -17.2448 56.7683 2.35197 -49.3534 1.08075 -47.3194 -3.76101 4.53541 -1.76108 11.4894 -6.45001 -0.0 0.0 -0.0 12.4504 27.5882 -24.22 -18.9839 14.083 -68.2695 0.234071 6.61417 -0.0135255 31.1535 -0.0292664 3.9309 -0.431568 -3.82461 1.24403 0.0 0.0 0.0 1.17435 29.3284 -2.0394 -17.5539 0.316736 2.66467 24.7076 -4.53037 -3.36061 -29.1829 0.0 0.0 -0.0 0.0 -0.0 6.42138 18.5453 -0.865104 -17.2551 -0.318216 -2.61884 23.7476 -8.13478 3.18514 -11.74 0.0 0.0 0.0 0.0 0.0 
3447.97 756.984 -1479.8 1.1976 60.6646 -2.10748 -0.323453 0.254651 3.03928 -0.318316 0.0608296 3.04931 -0.312274 -0.598247 2.99072 -0.324736 -0.118639 3.04761 -11.9184 18.0666 -3.53645 -12.7222 36.5135 2.08785 -0.0 0.0 -0.0 -0.0690136 16.4156 1.81906 4.89566 -15.9118 57.0281 2.39503 -49.8662 1.11355 -47.424 -3.77301 4.54144 -1.88993 13.0818 -6.50758 -0.0 0.0 -0.0 12.6422 27.5687 -24.6616 -18.9563 14.3456 -68.4706 0.221545 6.26311 -0.0121208 30.8934 -0.0378807 3.8988 -0.516104 -3.9959 1.72825 0.0 0.0 0.0 0.919597 28.5314 -2.23456 -17.3239 0.317897 2.62939 23.9889 -5.70053 -3.28974 -29.5157 0.0 0.0 -0.0 0.0 -0.0 6.42579 17.4985 -1.07719 -16.9289 -0.319559 -2.56882 23.7452 -8.22128 3.18497 -10.9899 0.0 0.0 0.0 0.0 0.0 
